<?xml version="1.0" standalone="no"?>
<!DOCTYPE svg PUBLIC "-//W3C//DTD SVG 20010904//EN"
 "http://www.w3.org/TR/2001/REC-SVG-20010904/DTD/svg10.dtd">
<svg version="1.0" xmlns="http://www.w3.org/2000/svg"
 width="1901.000000pt" height="1724.000000pt" viewBox="0 0 1901.000000 1724.000000"
 preserveAspectRatio="xMidYMid meet">

<g transform="translate(0.000000,1724.000000) scale(0.100000,-0.100000)"
fill="#000000" stroke="none">
<path d="M9330 13814 c-1151 -100 -2147 -682 -2779 -1624 -429 -640 -639
-1368 -618 -2145 19 -723 226 -1369 631 -1970 236 -351 563 -684 921 -940 948
-677 2212 -857 3322 -474 932 322 1700 1006 2123 1891 440 922 478 1994 103
2943 -77 195 -242 525 -263 525 -4 0 -603 -1032 -1331 -2292 -727 -1261 -1340
-2321 -1362 -2355 -184 -295 -615 -340 -854 -90 -33 34 -71 82 -85 107 -15 25
-625 1077 -1357 2339 -732 1262 -1329 2296 -1326 2299 3 3 35 0 71 -7 37 -6
69 -10 71 -7 3 3 37 50 77 105 590 825 1555 1382 2635 1521 612 79 1267 18
1828 -171 64 -21 118 -37 120 -35 5 5 -216 103 -344 152 -246 94 -559 171
-843 209 -119 16 -624 29 -740 19z"/>
<path d="M10350 5306 c-273 -58 -465 -242 -524 -503 -68 -300 70 -604 334
-738 109 -55 184 -70 350 -70 117 1 171 5 220 19 79 21 230 92 288 135 l42 31
0 295 0 295 -295 0 -295 0 0 -135 0 -135 125 0 125 0 0 -74 0 -74 -34 -16
c-178 -84 -394 -11 -474 163 -22 47 -27 70 -27 146 0 78 4 98 29 152 29 64 97
138 152 166 105 54 264 34 384 -49 27 -19 54 -34 59 -34 8 0 202 231 209 249
4 12 -109 88 -180 121 -35 16 -90 36 -123 45 -83 22 -283 28 -365 11z"/>
<path d="M13075 5309 c-222 -37 -397 -166 -496 -364 -173 -348 -11 -766 351
-908 283 -111 636 -24 812 200 103 131 142 247 142 418 0 134 -13 194 -69 305
-130 258 -433 401 -740 349z m260 -352 c66 -34 118 -89 152 -162 23 -51 28
-73 28 -145 0 -76 -3 -92 -33 -152 -37 -76 -83 -120 -160 -156 -47 -21 -64
-24 -136 -20 -114 6 -186 48 -249 144 -29 44 -57 139 -57 195 0 52 33 153 65
199 84 121 259 165 390 97z"/>
<path d="M2675 5278 c3 -7 120 -296 259 -643 l254 -630 169 -3 168 -2 255 635
c140 350 257 640 258 645 2 6 -73 10 -196 10 l-200 0 -62 -172 c-34 -95 -96
-269 -137 -385 -42 -117 -79 -213 -83 -213 -3 0 -32 73 -64 163 -32 89 -94
262 -138 385 l-80 222 -204 0 c-159 0 -202 -3 -199 -12z"/>
<path d="M4160 4650 l0 -640 185 0 185 0 0 640 0 640 -185 0 -185 0 0 -640z"/>
<path d="M11250 4651 l0 -641 180 0 180 0 0 195 0 195 73 0 72 0 129 -195 129
-195 208 0 c115 0 209 2 209 5 0 3 -53 83 -118 178 -65 95 -133 193 -150 219
l-32 46 53 30 c66 37 142 118 168 178 45 106 45 272 0 378 -24 55 -100 138
-156 172 -23 13 -68 34 -101 46 -57 21 -76 22 -451 26 l-393 3 0 -640z m698
306 c51 -28 74 -72 69 -135 -3 -38 -10 -59 -28 -78 -47 -50 -74 -57 -231 -62
l-148 -4 0 152 0 152 153 -4 c122 -3 158 -7 185 -21z"/>
<path d="M14052 4843 c4 -426 5 -451 25 -503 66 -176 153 -262 321 -318 69
-23 93 -26 232 -26 169 -1 236 11 340 61 71 34 169 132 203 203 59 122 60 138
65 603 l3 427 -185 0 -185 0 -3 -407 c-3 -396 -4 -409 -25 -448 -42 -79 -105
-115 -200 -115 -97 1 -171 48 -210 135 -16 36 -18 80 -21 438 l-3 397 -180 0
-180 0 3 -447z"/>
<path d="M15440 4650 l0 -640 180 0 180 0 0 185 0 185 143 0 c110 0 162 5 221
20 230 58 356 215 356 440 0 179 -80 314 -229 390 -109 55 -152 60 -518 60
l-333 0 0 -640z m638 311 c67 -34 98 -117 71 -188 -29 -79 -107 -113 -256
-113 l-93 0 0 166 0 166 118 -4 c96 -4 125 -8 160 -27z"/>
<path d="M6692 3612 c2 -5 31 -34 64 -65 54 -50 67 -57 103 -57 22 0 41 3 41
8 0 4 -23 33 -51 65 -50 56 -51 57 -106 57 -30 0 -53 -4 -51 -8z"/>
<path d="M8687 3552 l-49 -57 37 -3 c31 -3 43 2 69 27 l32 31 29 -30 c22 -23
38 -30 67 -30 21 0 38 3 38 6 0 3 -21 30 -47 60 -43 49 -52 54 -88 53 -36 0
-45 -6 -88 -57z"/>
<path d="M12417 3552 l-49 -57 37 -3 c31 -3 43 2 69 28 l32 30 27 -30 c22 -24
35 -30 68 -30 46 0 46 3 -17 74 -36 40 -46 46 -80 45 -35 0 -44 -7 -87 -57z"/>
<path d="M13808 3556 c-27 -30 -48 -57 -48 -60 0 -3 18 -6 39 -6 32 0 44 6 66
32 l27 32 27 -33 c24 -29 31 -32 69 -29 l43 3 -51 58 c-45 50 -56 57 -88 57
-32 0 -43 -7 -84 -54z"/>
<path d="M5713 3494 c-3 -10 -1 -31 5 -47 10 -26 9 -34 -5 -49 -9 -10 -24 -18
-35 -18 -14 0 -18 8 -18 40 l0 40 -50 0 -50 0 0 -200 c0 -223 -5 -245 -63
-280 -64 -40 -158 -15 -192 49 -12 24 -15 69 -15 231 l0 200 -50 0 -50 0 0
-193 c0 -140 4 -207 14 -242 49 -160 265 -207 386 -85 59 58 70 100 70 263 l0
124 42 6 c65 9 108 60 108 127 l0 50 -45 0 c-33 0 -47 -5 -52 -16z"/>
<path d="M4670 3420 l0 -40 90 0 90 0 0 -250 0 -250 50 0 50 0 0 250 0 250 90
0 90 0 0 40 0 40 -230 0 -230 0 0 -40z"/>
<path d="M6030 3170 l0 -290 50 0 50 0 0 125 0 125 140 0 140 0 0 -125 0 -125
50 0 50 0 0 290 0 290 -50 0 -50 0 0 -125 0 -125 -140 0 -140 0 0 125 0 125
-50 0 -50 0 0 -290z"/>
<path d="M6683 3177 c-62 -155 -113 -286 -113 -290 0 -5 21 -7 48 -5 l47 3 29
73 29 73 120 -3 121 -3 27 -70 26 -70 47 -3 c26 -2 46 1 46 7 0 6 -50 136
-111 291 l-110 280 -47 0 -47 0 -112 -283z m247 -69 c0 -5 -41 -8 -91 -8 -83
0 -90 2 -84 18 8 20 73 189 81 212 4 12 93 -198 94 -222z"/>
<path d="M7323 3447 c-66 -25 -120 -73 -149 -133 -26 -52 -29 -70 -29 -149 1
-77 5 -97 27 -140 32 -62 70 -98 128 -124 144 -63 303 -17 373 108 26 45 31
68 35 136 7 135 -35 223 -136 282 -38 23 -59 27 -131 30 -51 1 -99 -2 -118
-10z m174 -82 c78 -33 116 -96 117 -195 2 -127 -70 -210 -182 -210 -88 0 -139
31 -173 105 -26 56 -25 156 2 212 42 87 146 125 236 88z"/>
<path d="M8135 3435 c-27 -13 -57 -30 -65 -37 -125 -106 -128 -344 -6 -456 55
-51 103 -67 197 -66 63 1 84 5 127 29 71 38 77 48 57 79 -21 32 -38 33 -78 4
-26 -19 -45 -23 -107 -23 -93 0 -130 23 -166 99 -70 150 19 316 170 316 16 0
55 -12 88 -27 l60 -27 19 25 c26 33 24 42 -13 64 -56 34 -91 43 -163 44 -55 1
-81 -5 -120 -24z"/>
<path d="M8665 3444 c-102 -36 -165 -129 -173 -255 -6 -101 16 -167 75 -231
58 -61 114 -83 213 -82 179 2 290 129 278 319 -8 121 -74 215 -177 250 -55 19
-162 18 -216 -1z m192 -83 c62 -29 97 -86 101 -171 8 -144 -61 -230 -183 -230
-60 0 -103 19 -142 63 -54 62 -64 174 -23 257 45 89 151 124 247 81z"/>
<path d="M9160 3170 l0 -290 40 0 40 0 0 206 0 206 158 -203 c151 -195 159
-204 195 -207 l37 -3 0 290 0 291 -40 0 -40 0 -2 -207 -3 -208 -153 197 c-84
109 -161 202 -172 208 -10 5 -28 10 -39 10 -21 0 -21 -4 -21 -290z"/>
<path d="M9896 3440 c-63 -25 -112 -72 -142 -135 -19 -40 -24 -66 -24 -135 0
-69 5 -95 24 -135 29 -62 76 -107 141 -137 75 -34 199 -32 278 4 l57 27 0 120
0 121 -95 0 c-94 0 -95 0 -95 -24 0 -48 9 -56 61 -56 l49 0 0 -54 c0 -51 -2
-54 -32 -67 -48 -21 -145 -18 -192 5 -113 56 -140 249 -48 345 62 65 164 78
252 32 52 -27 64 -27 85 5 20 31 11 45 -49 77 -60 30 -203 35 -270 7z"/>
<path d="M10530 3170 l0 -290 45 0 45 0 2 202 3 202 155 -199 c148 -191 157
-200 193 -203 l37 -3 0 290 0 291 -40 0 -40 0 0 -211 0 -212 -145 189 c-165
214 -184 234 -226 234 l-29 0 0 -290z"/>
<path d="M11276 3440 c-105 -41 -169 -141 -169 -265 -1 -132 46 -215 150 -267
61 -30 76 -33 153 -32 70 0 95 5 143 26 l57 27 0 120 0 121 -96 0 -95 0 3 -37
3 -38 53 -3 52 -3 0 -53 c0 -48 -3 -54 -27 -65 -70 -32 -163 -23 -227 22 -60
43 -91 158 -65 250 33 118 178 171 299 108 48 -25 72 -21 88 13 9 20 7 27 -8
41 -59 54 -220 72 -314 35z"/>
<path d="M11710 3170 l0 -290 50 0 50 0 0 125 0 125 140 0 140 0 0 -125 0
-125 50 0 50 0 0 290 0 290 -50 0 -50 0 0 -125 0 -125 -140 0 -140 0 0 125 0
125 -50 0 -50 0 0 -290z"/>
<path d="M12320 3170 l0 -290 180 0 180 0 0 40 0 40 -135 0 -135 0 0 85 0 85
110 0 110 0 0 40 0 40 -110 0 -110 0 0 85 0 85 135 0 135 0 0 40 0 40 -180 0
-180 0 0 -290z"/>
<path d="M12880 3448 c0 -7 50 -138 112 -291 l113 -278 44 3 44 3 114 279 c62
154 113 283 113 288 0 10 -71 10 -88 0 -10 -7 -78 -168 -174 -412 -9 -22 -19
-1 -94 185 -45 115 -91 215 -100 222 -23 17 -84 17 -84 1z"/>
<path d="M13480 3170 l0 -290 50 0 50 0 0 290 0 290 -50 0 -50 0 0 -290z"/>
<path d="M13710 3170 l0 -290 180 0 180 0 0 40 0 40 -135 0 -135 0 0 85 0 85
110 0 110 0 0 40 0 40 -110 0 -110 0 0 85 0 85 135 0 135 0 0 40 0 40 -180 0
-180 0 0 -290z"/>
<path d="M14100 3420 l0 -40 90 0 90 0 0 -250 0 -250 50 0 50 0 0 250 0 250
90 0 90 0 0 40 0 40 -230 0 -230 0 0 -40z"/>
<path d="M5392 2828 c-7 -7 -12 -24 -12 -38 0 -14 5 -31 12 -38 7 -7 24 -12
38 -12 32 0 50 17 50 46 0 44 -58 72 -88 42z"/>
<path d="M12476 2825 c-20 -20 -21 -59 -2 -74 21 -18 66 -9 82 14 30 46 -40
99 -80 60z"/>
<path d="M13868 2829 c-21 -12 -24 -59 -6 -77 7 -7 24 -12 38 -12 34 0 50 17
50 52 0 40 -43 60 -82 37z"/>
</g>
</svg>
